<svg xmlns="http://www.w3.org/2000/svg" xmlns:xlink="http://www.w3.org/1999/xlink" version="1.1" baseProfile="tiny" x="0px" y="0px" width="100px" height="100px" viewBox="0 0 100 100" xml:space="preserve">
<g id="Captions">
</g>
<g id="Your_Icon">
	<path fill-rule="evenodd" fill="#000000" d="M35,68v6h30v-6H35z M35,58v6h30v-6H35z M16.998,64H23v16.004   C23,84.863,24.094,86,28.998,86h42C75.902,86,77,85.096,77,80.004V64h5.998c5.1,0.08,6.002-1.055,6.002-5.996v-22   C89,31.305,88.238,30,82.998,30H77v-9.996C77,15.064,76.098,14,70.998,14h-42C24.197,14,23,15.145,23,20.004V30h-6.002   C11.838,30,11,31.125,11,36.004v22C11,62.863,12.197,64.08,16.998,64z M71,80H29V54h42V80z M74.758,43.004   c0-1.801,1.439-3.238,3.24-3.238s3.24,1.438,3.24,3.238s-1.439,3.24-3.24,3.24S74.758,44.805,74.758,43.004z M29,20h42v10H29V20z"/>
</g>
</svg>